<?xml version="1.0" encoding="utf-8"?>
<!-- Generator: Adobe Illustrator 27.5.0, SVG Export Plug-In . SVG Version: 6.00 Build 0)  -->
<svg version="1.1" xmlns="http://www.w3.org/2000/svg" xmlns:xlink="http://www.w3.org/1999/xlink" x="0px" y="0px"
	 viewBox="0 0 2122 2122" style="enable-background:new 0 0 2122 2122;" xml:space="preserve">
<g id="Capa_3">
</g>
<g id="Capa_4">
	<g>
		<g>
			<g>
				<g>
					<g>
						<path style="fill:#CD6C28;" d="M1784.32,1256.329c0,115.921-27.172,225.488-75.873,322.528c0,0.177-0.172,0.353-0.172,0.53
							c-97.222,194.611-279.655,339.112-498.436,384.988c-48.167,10.233-98.1,15.524-149.265,15.524
							c-203.609,0-387.465-83.984-519.086-219.31c-126.504-130.211-204.488-308.059-204.488-504.26
							c0-64.751,8.468-137.797,24.527-214.723c82.395-397.867,364.169-900.184,699.047-900.184
							C1460.203,141.422,1784.32,856.7,1784.32,1256.329z"/>
					</g>
				</g>
			</g>
		</g>
		<g>
			<path style="fill:#EB7E31;" d="M475.544,982.174c2.443-0.188,4.901-0.315,7.369-0.378
				c91.751-2.473,164.094,76.394,211.016,155.261c27.194,45.618,50.345,94.001,68.568,144.085c0.08,0.219,0.158,0.438,0.237,0.657
				c0.252,0.694,0.505,1.389,0.754,2.083c24.181,67.073,39.556,137.143,43.925,207.626c70.671-4.795,139.751-26.657,202.493-61.022
				c-39.558-50.724-59.65-115.947-64.943-180.559c-12.955-158.209,34.023-436.661,264.694-363.13
				c36.536,11.648,68.65,33.45,94.939,61.348c3.869-30.619,6.859-61.42,8.795-92.218c-0.472-0.181-0.946-0.363-1.416-0.549
				c-1.521-0.515-3.092-1.182-4.572-1.854c-6.817-2.987-13.377-6.411-19.689-10.216c-39.946-24.001-69.937-63.387-92.036-104.942
				c-19.747-37.128-42.576-123.786-48.147-206.729c-4.417-65.272,1.866-128.235,28.807-162.918c0.215-0.276,0.43-0.552,0.647-0.826
				c0.007-0.008,0.012-0.016,0.02-0.025c7.314-9.204,16.117-16.357,26.604-20.956c-42.334-49.901-96.485-88.695-159.45-105.625
				c-194.43-52.403-303.818,136.916-399.276,269.415C542.021,653.268,470.388,818.411,437.22,990.968
				c10.761-4.411,22.052-7.234,34.053-8.468C472.696,982.37,474.12,982.264,475.544,982.174z M949.73,319.415
				c79.956,0,79.826,124.056,0,124.056C869.774,443.47,869.904,319.415,949.73,319.415z M756.784,729.207
				c65.573-28.203,103.393,39.638,100.08,94.994c-1.874,31.29-9.892,62.206-23.471,90.458
				c-13.299,27.673-36.991,55.456-67.681,54.626c-21.407-0.58-40.418-15.823-50.624-34.652
				c-10.202-18.83-12.945-40.778-13.669-62.186C699.85,825.99,707.334,750.475,756.784,729.207z"/>
			<g>
				<path style="fill:#F7BC15;" d="M807.204,1491.524c-4.306-70.52-19.589-140.583-43.715-207.641
					c-0.249-0.694-0.502-1.389-0.754-2.083c-0.08-0.219-0.157-0.438-0.237-0.657c-18.223-50.083-41.374-98.467-68.568-144.085
					c-46.922-78.867-119.265-157.734-211.016-155.261c-2.461,0.11-4.916,0.222-7.369,0.378c-1.424,0.09-2.848,0.196-4.272,0.326
					c-12.001,1.234-23.291,4.057-34.053,8.468c-0.003,0.009-0.003,0.016-0.005,0.025c-45.691,18.196-78.96,61.519-87.016,111.981
					c-8.688,54.396-13.2,106.085-13.2,153.352c0,172.008,59.937,329.907,159.957,453.973c39.438,48.921,99.665,78.447,162.38,74.541
					l1.244-0.08c35.472-2.293,71.638-14.114,96.163-39.698c23.641-24.875,34.058-59.457,40.578-93.161
					c10.377-52.945,13.417-106.787,10.092-160.392C807.414,1491.509,807.414,1491.509,807.204,1491.524z"/>
				<path style="fill:#F7BC15;" d="M1723.447,1325.671c-7.409-19.939-17.815-39.699-35.286-51.699
					c-40.408-27.698-94.924-1.939-135.862,25.055c-155.261,102.688-298.177,228.662-399.096,385.162
					c-24.701,38.289-47.288,79.396-54.172,124.391c-6.884,45.169,4.242,95.099,38.115,125.62c2.873,2.548,5.86,4.926,8.953,7.134
					c27.903,19.974,64.188,23.781,97.397,15.133c203.772-53.052,372.588-192.536,464.779-377.079l0.175-0.529
					C1739.504,1497.344,1752.909,1407.006,1723.447,1325.671z"/>
				<path style="fill:#F7BC15;" d="M756.784,729.207c-49.45,21.268-56.934,96.783-55.366,143.241
					c0.724,21.408,3.467,43.356,13.669,62.186c10.207,18.83,29.217,34.073,50.624,34.652c30.691,0.829,54.382-26.954,67.681-54.626
					c13.579-28.252,21.598-59.168,23.471-90.458C860.177,768.846,822.357,701.005,756.784,729.207z"/>
				<path style="fill:#F7BC15;" d="M1195.719,738.31c22.095,41.59,52.078,80.942,91.996,104.997
					c6.313,3.805,12.872,7.229,19.689,10.216c1.479,0.672,3.05,1.339,4.572,1.854c0.47,0.186,0.944,0.369,1.416,0.549
					c49.123,18.692,110.847,9.911,143.358-31.165c32.144-40.608,28.267-98.227,20.458-149.426
					c-9.343-61.226-22.257-122.622-48.791-178.582c-26.534-55.965-67.891-106.575-123.036-134.757
					c-44.445-22.717-77.583-25.69-101.771-15.084c-10.487,4.6-19.29,11.753-26.604,20.956c-0.007,0.009-0.012,0.017-0.02,0.025
					c-0.217,0.274-0.432,0.549-0.647,0.826c-26.941,34.683-33.223,97.645-28.807,162.918
					C1153.143,614.545,1176.009,701.178,1195.719,738.31z"/>
				<path style="fill:#F7BC15;" d="M953.205,1618.76c-21.566-4.008-42.764-2.413-63.147,6.187
					c-31.105,13.124-50.42,43.136-54.821,75.919c-7.374,54.851,26.809,113.764,83.404,125.695
					c64.823,13.669,130.555-32.379,132.944-100.549C1053.482,1671.915,1005.576,1620.091,953.205,1618.76z"/>
				<path style="fill:#F7BC15;" d="M1475.785,1032.545c0.849,6.31,1.699,12.615,2.543,18.925c3.383,12.06,9.488,22.532,18.31,31.42
					c4.801,3.707,9.607,7.419,14.409,11.131c11.106,6.44,23.081,9.677,35.936,9.717c9.802,0.37,18.945-1.674,27.428-6.13
					c8.828-2.873,16.462-7.779,22.912-14.718c6.945-6.45,11.85-14.089,14.724-22.917c4.456-8.483,6.5-17.626,6.13-27.428
					c-0.85-6.31-1.694-12.62-2.543-18.925c-3.382-12.061-9.488-22.537-18.311-31.42c-4.801-3.707-9.602-7.419-14.408-11.131
					c-11.106-6.44-23.082-9.677-35.932-9.718c-9.802-0.37-18.945,1.674-27.433,6.13c-8.823,2.873-16.462,7.778-22.912,14.718
					c-6.944,6.45-11.851,14.089-14.718,22.917C1477.459,1013.6,1475.416,1022.743,1475.785,1032.545z"/>
				<path style="fill:#F7BC15;" d="M949.73,443.47c79.826,0,79.956-124.056,0-124.056C869.904,319.415,869.774,443.47,949.73,443.47
					z"/>
			</g>
			<path style="fill:#F7BC15;" d="M1365.615,1048.965c-13.199-37.141-34.015-72.19-61.033-100.835l-0.068,0.066
				c-26.276-27.838-58.358-49.689-94.856-61.324c-230.601-73.576-277.709,204.841-264.654,363.11
				c5.293,64.554,25.392,129.812,64.893,180.445l0.01,0.083c6.802,8.697,14.221,17.036,22.202,24.812
				c54.432,53.103,139.716,77.711,209.7,48.039c84.208-35.76,122.629-133.679,136.903-224.077
				C1390.838,1202.545,1391.605,1122.174,1365.615,1048.965z"/>
			<g>
				<path style="fill:#FFCF20;" d="M684.232,1481.991c40.757,9.532,82.215,12.35,122.972,9.532
					c-4.306-70.52-19.589-140.583-43.715-207.641c-0.249-0.694-0.502-1.389-0.754-2.083c-0.08-0.219-0.157-0.438-0.237-0.657
					c-18.223-50.083-41.374-98.467-68.568-144.085c-46.922-78.867-119.265-157.734-211.016-155.261
					c-2.461,0.11-4.916,0.222-7.369,0.378c-1.424,0.09-2.848,0.196-4.272,0.326c-12.001,1.234-23.291,4.057-34.053,8.468
					c-0.003,0.009-0.003,0.016-0.005,0.025c-6.707,34.399-11.816,69.149-15.348,104.072
					C402.812,1282.446,492.965,1437.532,684.232,1481.991z"/>
				<path style="fill:#FFCF20;" d="M1209.658,886.872c-230.601-73.576-277.709,204.841-264.654,363.11
					c5.295,64.573,25.405,129.851,64.928,180.491c101.809-55.75,186.491-144.5,232.37-247.542
					c33.169-74.276,51.699-153.672,62.281-234.663C1278.293,920.395,1246.188,898.517,1209.658,886.872z"/>
				<path style="fill:#FFCF20;" d="M715.088,934.633c10.207,18.83,29.217,34.073,50.624,34.652
					c30.691,0.829,54.382-26.954,67.681-54.626c13.579-28.252,21.598-59.168,23.471-90.458
					c3.312-55.356-34.508-123.197-100.08-94.994c-49.45,21.268-56.934,96.783-55.366,143.241
					C702.143,893.856,704.886,915.803,715.088,934.633z"/>
				<path style="fill:#FFCF20;" d="M1316.228,803.768c4.411-112.745,0.535-228.308-40.053-333.644
					c-16.936-44.285-41.462-86.806-72.512-123.152c-10.509,4.575-19.329,11.708-26.656,20.896c-0.007,0.009-0.012,0.017-0.02,0.025
					c-0.217,0.274-0.432,0.549-0.647,0.826c-26.941,34.683-33.223,97.645-28.807,162.918c5.61,82.909,28.477,169.541,48.187,206.674
					c22.095,41.59,52.078,80.942,91.996,104.997c6.313,3.805,12.872,7.229,19.689,10.216c1.479,0.672,3.05,1.339,4.572,1.854
					c0.48,0.164,0.957,0.312,1.424,0.44C1314.644,838.525,1315.523,821.059,1316.228,803.768z"/>
				<path style="fill:#FFCF20;" d="M949.73,443.47c79.826,0,79.956-124.056,0-124.056C869.904,319.415,869.774,443.47,949.73,443.47
					z"/>
			</g>
		</g>
	</g>
</g>
</svg>
